<?xml version="1.0" standalone="no"?>
<!DOCTYPE svg PUBLIC "-//W3C//DTD SVG 20010904//EN"
 "http://www.w3.org/TR/2001/REC-SVG-20010904/DTD/svg10.dtd">
<svg version="1.0" xmlns="http://www.w3.org/2000/svg"
 width="316.000000pt" height="316.000000pt" viewBox="0 0 316.000000 316.000000"
 preserveAspectRatio="xMidYMid meet">
<metadata>
Created by potrace 1.14, written by Peter Selinger 2001-2017
</metadata>
<g transform="translate(0.000000,316.000000) scale(0.100000,-0.100000)"
fill="#000000" stroke="none">
<path d="M1435 3153 c-258 -21 -555 -132 -776 -290 -118 -85 -285 -252 -366
-366 -564 -801 -277 -1916 602 -2337 466 -223 1011 -206 1455 45 538 304 850
890 800 1502 -71 877 -834 1520 -1715 1446z m453 -82 c539 -119 961 -495 1132
-1010 58 -174 74 -276 74 -481 0 -188 -12 -280 -60 -438 -117 -388 -401 -730
-758 -912 -93 -47 -243 -106 -250 -99 -2 2 -7 51 -11 108 -7 100 -7 104 11 97
54 -22 135 -29 199 -18 84 14 143 42 203 98 l47 45 -40 -20 c-109 -52 -238
-48 -367 11 -61 28 -92 62 -65 71 6 2 58 -9 116 -25 164 -42 279 -34 408 28
60 29 140 98 166 144 l19 31 -50 -35 c-71 -52 -121 -66 -267 -76 -72 -5 -155
-14 -184 -20 -78 -15 -82 -12 -24 16 69 33 109 80 172 202 60 117 55 119 -51
22 l-68 -62 0 50 c0 79 -29 331 -40 353 -8 13 -8 19 0 19 7 0 7 6 0 21 -9 15
-8 24 1 35 10 12 10 17 1 23 -6 4 -18 56 -27 116 -9 65 -21 115 -31 126 -10
11 -44 21 -95 28 -124 19 -172 37 -246 95 -72 56 -114 82 -112 69 3 -21 -3
-22 -31 -8 -37 19 -120 19 -165 1 -19 -8 -35 -11 -35 -5 0 5 -5 9 -11 9 -22 0
9 -26 59 -49 l49 -23 -28 -52 c-35 -63 -37 -76 -5 -39 23 26 25 27 32 9 4 -10
0 -48 -9 -85 -9 -36 -19 -124 -23 -194 l-6 -129 -25 37 c-74 108 -110 238 -93
331 15 79 29 178 26 181 -1 1 -33 -22 -71 -53 -74 -58 -118 -75 -240 -94 -38
-6 -77 -13 -86 -16 -24 -7 -36 -46 -50 -154 -6 -52 -16 -98 -21 -101 -7 -4 -6
-13 1 -26 5 -11 7 -24 3 -28 -4 -3 -8 -19 -8 -33 -1 -15 -9 -85 -18 -157 -9
-71 -17 -158 -17 -192 l0 -62 -81 70 c-45 38 -82 68 -84 66 -5 -5 112 -226
132 -248 9 -10 44 -32 77 -49 67 -34 67 -34 -22 -19 -36 5 -119 14 -185 19
-136 9 -206 30 -269 81 l-39 31 15 -29 c25 -47 114 -123 180 -153 129 -58 236
-64 399 -21 59 15 110 26 113 23 3 -3 5 -13 5 -22 0 -23 -116 -75 -200 -90
-77 -14 -148 -6 -220 26 l-55 24 52 -49 c58 -54 126 -85 214 -96 50 -6 138 4
182 20 16 7 17 0 11 -96 -4 -57 -8 -106 -10 -108 -5 -6 -110 32 -203 76 -428
198 -736 589 -843 1070 -19 83 -22 129 -22 303 0 174 3 220 22 307 101 465
392 842 811 1053 149 75 310 124 506 154 17 2 111 3 210 1 134 -3 204 -9 273
-24z m-151 -1466 c-2 -16 2 -44 9 -62 37 -88 5 -251 -72 -368 l-39 -60 -6 150
c-4 87 -13 172 -22 202 -12 43 -13 54 -2 63 11 9 18 5 31 -15 30 -45 27 -18
-4 39 l-30 56 57 28 c51 26 57 27 69 13 7 -9 11 -29 9 -46z"/>
<path d="M2376 2528 c28 -29 69 -80 91 -114 40 -58 130 -149 192 -193 l30 -22
-23 68 c-55 161 -101 212 -255 278 l-85 36 50 -53z"/>
<path d="M729 2537 c-95 -42 -140 -76 -179 -136 -24 -38 -80 -177 -80 -199 0
-6 86 63 133 107 22 20 57 63 80 96 22 33 63 84 90 113 28 28 46 52 41 52 -5
0 -43 -15 -85 -33z"/>
<path d="M1062 2537 c-88 -33 -148 -122 -140 -205 13 -129 120 -214 252 -198
68 8 120 44 148 105 12 27 30 52 40 54 29 8 21 34 -13 46 -40 14 -139 14 -174
1 -33 -13 -30 -42 5 -50 18 -4 25 -13 25 -29 0 -35 -29 -50 -62 -31 -38 21
-63 70 -70 134 -5 51 -4 57 25 85 42 42 72 40 126 -9 47 -43 66 -49 90 -24 40
39 0 124 -57 123 -18 0 -61 2 -97 5 -41 4 -77 1 -98 -7z"/>
<path d="M1433 2535 c-38 -16 -42 -34 -12 -61 19 -18 21 -27 17 -141 -3 -106
-5 -124 -22 -136 -45 -33 8 -67 102 -67 87 0 126 35 82 73 -14 11 -20 29 -20
57 0 33 4 41 24 46 13 3 35 4 47 2 21 -3 24 -8 23 -50 0 -30 -7 -54 -17 -66
-24 -26 -21 -41 9 -52 41 -16 146 -12 172 6 27 19 28 28 2 54 -18 18 -20 33
-20 138 0 106 2 121 20 137 49 45 11 75 -93 75 -92 0 -132 -34 -86 -73 15 -13
19 -27 17 -55 -3 -37 -3 -37 -48 -37 -44 0 -45 1 -48 36 -2 25 3 40 18 54 25
23 26 51 1 65 -28 14 -130 12 -168 -5z"/>
<path d="M2028 2536 c-56 -20 -80 -39 -113 -86 -26 -38 -30 -52 -30 -111 0
-59 4 -73 30 -111 36 -51 120 -98 176 -98 55 0 141 29 167 57 42 45 17 108
-28 68 -28 -25 -91 -30 -129 -10 -65 33 -92 145 -46 190 40 41 90 28 131 -35
59 -89 136 -15 88 86 -13 27 -22 34 -44 34 -15 0 -44 7 -63 15 -44 18 -90 19
-139 1z"/>
<path d="M488 2415 c-57 -30 -102 -84 -128 -154 -18 -46 -20 -73 -18 -203 l3
-150 33 45 c17 25 75 80 128 123 55 44 109 97 126 123 27 43 63 140 54 148 -2
2 -13 -12 -25 -31 -12 -19 -65 -67 -117 -107 -59 -43 -107 -89 -126 -117 -17
-26 -28 -40 -25 -31 26 76 46 153 52 195 9 56 32 107 70 153 15 17 25 31 23
31 -1 -1 -24 -12 -50 -25z"/>
<path d="M2649 2401 c35 -44 60 -100 61 -137 0 -20 37 -153 55 -199 4 -11 -7
1 -24 27 -19 27 -70 75 -123 114 -50 38 -104 86 -121 109 l-30 40 7 -35 c12
-68 56 -138 118 -192 112 -97 191 -173 207 -199 15 -25 16 -19 19 121 2 129 0
155 -18 203 -30 79 -69 128 -131 161 l-54 30 34 -43z"/>
<path d="M281 2198 c-52 -71 -74 -141 -75 -243 -1 -79 4 -106 41 -225 23 -74
43 -144 46 -155 2 -14 8 -6 16 25 18 63 32 86 105 182 71 94 106 158 130 237
9 30 16 55 16 56 0 1 -49 -46 -109 -104 -110 -107 -129 -139 -144 -231 -2 -14
-3 34 -3 105 0 72 -1 177 -3 235 -2 62 1 116 8 133 15 38 8 34 -28 -15z"/>
<path d="M2846 2225 c5 -11 9 -129 9 -261 0 -194 -2 -232 -11 -195 -17 75 -42
111 -146 212 -89 86 -98 93 -92 65 14 -67 47 -137 95 -202 95 -131 130 -189
142 -231 11 -44 27 -58 27 -25 0 10 13 58 30 107 68 202 71 324 11 442 -29 59
-81 129 -65 88z"/>
<path d="M2987 1847 c8 -39 -24 -160 -67 -255 -22 -50 -49 -129 -60 -174 l-18
-83 -1 80 c-1 99 -11 135 -58 210 -20 33 -51 87 -70 120 l-34 60 6 -60 c10
-96 24 -162 63 -285 28 -90 36 -132 36 -197 1 -45 2 -81 2 -80 35 39 179 243
193 272 42 89 55 240 31 348 -13 54 -32 93 -23 44z"/>
<path d="M152 1824 c-32 -106 -18 -283 29 -376 15 -29 153 -221 188 -260 3 -4
6 32 7 80 0 71 7 108 37 202 40 128 57 211 57 279 l-1 46 -17 -35 c-10 -19
-42 -74 -71 -121 -57 -93 -75 -167 -66 -264 4 -35 -2 -19 -19 50 -13 55 -42
138 -64 185 -36 75 -56 147 -64 230 -3 21 -5 18 -16 -16z"/>
<path d="M451 1451 c-1 -19 -11 -84 -22 -145 -24 -123 -21 -180 11 -253 11
-25 19 -48 17 -50 -2 -2 -26 29 -52 69 -26 40 -80 107 -120 148 -84 88 -111
125 -137 188 l-19 47 5 -84 c4 -65 12 -98 35 -145 34 -71 98 -159 144 -197 30
-24 267 -181 267 -176 0 1 -9 25 -19 52 -26 69 -39 147 -51 301 -6 90 -17 154
-34 205 -20 63 -24 69 -25 40z"/>
<path d="M2681 1415 c-13 -40 -26 -119 -32 -185 -15 -185 -28 -258 -53 -321
-13 -32 -23 -59 -21 -59 13 0 277 185 301 211 53 56 112 148 128 197 18 57 31
172 19 172 -4 0 -19 -25 -31 -54 -16 -36 -55 -88 -116 -153 -50 -55 -111 -130
-135 -166 -24 -37 -45 -67 -46 -67 -1 0 8 26 20 58 35 87 38 120 20 223 -10
52 -20 121 -24 154 l-7 60 -23 -70z"/>
<path d="M2563 1133 c-53 -76 -88 -146 -130 -262 -43 -120 -77 -188 -111 -223
-14 -16 -20 -28 -14 -28 23 0 252 51 291 65 140 49 297 218 326 350 6 29 6 29
-23 -10 -50 -70 -123 -125 -237 -179 -60 -30 -139 -75 -174 -101 l-64 -47 40
48 c62 74 81 123 103 256 12 68 25 136 30 152 16 46 6 41 -37 -21z"/>
<path d="M554 1164 c4 -10 19 -81 32 -157 26 -152 41 -188 105 -262 49 -56 55
-58 -61 27 -19 14 -87 51 -150 82 -112 54 -178 104 -228 171 l-22 30 6 -30
c11 -47 59 -136 98 -182 20 -22 73 -66 119 -97 73 -50 96 -60 201 -86 66 -16
140 -32 165 -36 l46 -7 -33 37 c-40 46 -62 88 -100 196 -44 125 -67 174 -116
249 -44 69 -77 103 -62 65z"/>
</g>
</svg>
